# xmcd
#
# Track frame offsets:
#	150
#	23282
#	45252
#	64880
#	91362
#	109607
#	131705
#	156362
#	176035
#	197240
#	219290
#	244265
#
# Disc length: 3551 seconds
#
# Revision: 0
# Processed by: cddbd v1.4PL0 Copyright (c) Steve Scherf et al.
# Submitted via: EasyCDDAExtractor 4.6.0.1
#
DISCID=9e0ddd0c
DTITLE=Patti_LaBelle - Burnin'
DYEAR=1991
DGENRE=RnB
TTITLE0=Feels like another one
TTITLE1=Somebody loves you baby (you know who it is)
TTITLE2=When you love somebody (i'm saving my love for you)
TTITLE3=I don't do duets
TTITLE4=Temptation
TTITLE5=When you've been blessed (feels like heaven)
TTITLE6=Burnin' (the fire is still) burnin' for you
TTITLE7=I hear your voice
TTITLE8=We're not makin' love anymore
TTITLE9=Release yourself
TTITLE10=Love never dies
TTITLE11=Crazy Love
EXTD=
EXTT0=
EXTT1=
EXTT2=
EXTT3=
EXTT4=
EXTT5=
EXTT6=
EXTT7=
EXTT8=
EXTT9=
EXTT10=
EXTT11=
PLAYORDER=
